<svg id="visual" viewBox="0 0 900 600" width="900" height="600" xmlns="http://www.w3.org/2000/svg" xmlns:xlink="http://www.w3.org/1999/xlink" version="1.1"><rect x="0" y="0" width="900" height="600" fill="#001220"></rect><path d="M0 366L25 375C50 384 100 402 150 406C200 410 250 400 300 410.7C350 421.3 400 452.7 450 456.2C500 459.7 550 435.3 600 419.2C650 403 700 395 750 408.2C800 421.3 850 455.7 875 472.8L900 490L900 601L875 601C850 601 800 601 750 601C700 601 650 601 600 601C550 601 500 601 450 601C400 601 350 601 300 601C250 601 200 601 150 601C100 601 50 601 25 601L0 601Z" fill="#fa7268"></path><path d="M0 399L25 418.8C50 438.7 100 478.3 150 479C200 479.7 250 441.3 300 434.7C350 428 400 453 450 462.8C500 472.7 550 467.3 600 458.2C650 449 700 436 750 447.5C800 459 850 495 875 513L900 531L900 601L875 601C850 601 800 601 750 601C700 601 650 601 600 601C550 601 500 601 450 601C400 601 350 601 300 601C250 601 200 601 150 601C100 601 50 601 25 601L0 601Z" fill="#e34c67"></path><path d="M0 517L25 520.3C50 523.7 100 530.3 150 531.5C200 532.7 250 528.3 300 517.7C350 507 400 490 450 491.3C500 492.7 550 512.3 600 523.5C650 534.7 700 537.3 750 531.2C800 525 850 510 875 502.5L900 495L900 601L875 601C850 601 800 601 750 601C700 601 650 601 600 601C550 601 500 601 450 601C400 601 350 601 300 601C250 601 200 601 150 601C100 601 50 601 25 601L0 601Z" fill="#c62368"></path></svg>