<svg id="visual" viewBox="0 0 900 600" width="900" height="600" xmlns="http://www.w3.org/2000/svg" xmlns:xlink="http://www.w3.org/1999/xlink" version="1.1"><rect x="0" y="0" width="900" height="600" fill="#001220"></rect><path d="M0 163L25 161.3C50 159.7 100 156.3 150 151.2C200 146 250 139 300 151.3C350 163.7 400 195.3 450 200.3C500 205.3 550 183.7 600 169.3C650 155 700 148 750 140.5C800 133 850 125 875 121L900 117L900 0L875 0C850 0 800 0 750 0C700 0 650 0 600 0C550 0 500 0 450 0C400 0 350 0 300 0C250 0 200 0 150 0C100 0 50 0 25 0L0 0Z" fill="#d873f7"></path><path d="M0 151L25 143C50 135 100 119 150 119.2C200 119.3 250 135.7 300 131.8C350 128 400 104 450 96.3C500 88.7 550 97.3 600 102.3C650 107.3 700 108.7 750 122.7C800 136.7 850 163.3 875 176.7L900 190L900 0L875 0C850 0 800 0 750 0C700 0 650 0 600 0C550 0 500 0 450 0C400 0 350 0 300 0C250 0 200 0 150 0C100 0 50 0 25 0L0 0Z" fill="#c10ff0"></path><path d="M0 80L25 74.7C50 69.3 100 58.7 150 61C200 63.3 250 78.7 300 92.2C350 105.7 400 117.3 450 110C500 102.7 550 76.3 600 65.2C650 54 700 58 750 62.7C800 67.3 850 72.7 875 75.3L900 78L900 0L875 0C850 0 800 0 750 0C700 0 650 0 600 0C550 0 500 0 450 0C400 0 350 0 300 0C250 0 200 0 150 0C100 0 50 0 25 0L0 0Z" fill="#8d0caf"></path></svg>