<svg id="visual" viewBox="0 0 900 600" width="900" height="600" xmlns="http://www.w3.org/2000/svg" xmlns:xlink="http://www.w3.org/1999/xlink" version="1.1"><rect x="0" y="0" width="900" height="600" fill="#001220"></rect><path d="M0 120L25 118C50 116 100 112 150 134.5C200 157 250 206 300 205.2C350 204.3 400 153.7 450 152C500 150.3 550 197.7 600 216.3C650 235 700 225 750 210.5C800 196 850 177 875 167.5L900 158L900 0L875 0C850 0 800 0 750 0C700 0 650 0 600 0C550 0 500 0 450 0C400 0 350 0 300 0C250 0 200 0 150 0C100 0 50 0 25 0L0 0Z" fill="#d873f7"></path><path d="M0 182L25 175.5C50 169 100 156 150 144.5C200 133 250 123 300 120.7C350 118.3 400 123.7 450 122.8C500 122 550 115 600 124C650 133 700 158 750 164C800 170 850 157 875 150.5L900 144L900 0L875 0C850 0 800 0 750 0C700 0 650 0 600 0C550 0 500 0 450 0C400 0 350 0 300 0C250 0 200 0 150 0C100 0 50 0 25 0L0 0Z" fill="#c10ff0"></path><path d="M0 83L25 89.7C50 96.3 100 109.7 150 115.8C200 122 250 121 300 108.3C350 95.7 400 71.3 450 61.2C500 51 550 55 600 67.5C650 80 700 101 750 108.2C800 115.3 850 108.7 875 105.3L900 102L900 0L875 0C850 0 800 0 750 0C700 0 650 0 600 0C550 0 500 0 450 0C400 0 350 0 300 0C250 0 200 0 150 0C100 0 50 0 25 0L0 0Z" fill="#8d0caf"></path></svg>