<svg id="visual" viewBox="0 0 900 600" width="900" height="600" xmlns="http://www.w3.org/2000/svg" xmlns:xlink="http://www.w3.org/1999/xlink" version="1.1"><rect x="0" y="0" width="900" height="600" fill="#001220"></rect><path d="M0 232L25 223C50 214 100 196 150 192C200 188 250 198 300 187.3C350 176.7 400 145.3 450 141.8C500 138.3 550 162.7 600 178.8C650 195 700 203 750 189.8C800 176.7 850 142.3 875 125.2L900 108L900 0L875 0C850 0 800 0 750 0C700 0 650 0 600 0C550 0 500 0 450 0C400 0 350 0 300 0C250 0 200 0 150 0C100 0 50 0 25 0L0 0Z" fill="#d873f7"></path><path d="M0 199L25 179.2C50 159.3 100 119.7 150 119C200 118.3 250 156.7 300 163.3C350 170 400 145 450 135.2C500 125.3 550 130.7 600 139.8C650 149 700 162 750 150.5C800 139 850 103 875 85L900 67L900 0L875 0C850 0 800 0 750 0C700 0 650 0 600 0C550 0 500 0 450 0C400 0 350 0 300 0C250 0 200 0 150 0C100 0 50 0 25 0L0 0Z" fill="#c10ff0"></path><path d="M0 81L25 77.7C50 74.3 100 67.7 150 66.5C200 65.3 250 69.7 300 80.3C350 91 400 108 450 106.7C500 105.3 550 85.7 600 74.5C650 63.3 700 60.7 750 66.8C800 73 850 88 875 95.5L900 103L900 0L875 0C850 0 800 0 750 0C700 0 650 0 600 0C550 0 500 0 450 0C400 0 350 0 300 0C250 0 200 0 150 0C100 0 50 0 25 0L0 0Z" fill="#8d0caf"></path></svg>